<svg width="51" height="52" viewBox="0 0 51 52" fill="none" xmlns="http://www.w3.org/2000/svg">
  <mask id="mask0_548_3524" style="mask-type:luminance" maskUnits="userSpaceOnUse" x="6" y="0" width="32" height="44">
    <path d="M37.7833 0.0478516H6.68457V43.8622H37.7833V0.0478516Z" fill="white"/>
  </mask>
  <g mask="url(#mask0_548_3524)">
    <path d="M7.80664 36.5798L20.4541 5.83984H24.0554L36.7028 36.5798H32.6202L29.7229 29.5953H14.7457L11.9347 36.5798H7.80664ZM16.2398 25.9986H28.2742L22.257 11.2394L16.2398 25.9986Z" fill="white"/>
  </g>

  <!-- NEW: mask that hides ONLY the border behind the "2" area -->
  <mask id="maskBorderCut_548_3524" maskUnits="userSpaceOnUse" x="0" y="0" width="51" height="52">
    <rect x="0" y="0" width="51" height="52" fill="white"/>
    <!-- cutout area around the 2 (slightly padded) -->
    <rect x="35.0" y="4.0" width="16.2" height="16.2" fill="black"/>
  </mask>

  <!-- Border group, now wrapped with the cutout mask -->
  <g mask="url(#maskBorderCut_548_3524)">
    <mask id="mask1_548_3524" style="mask-type:luminance" maskUnits="userSpaceOnUse" x="0" y="0" width="44" height="44">
      <path d="M0.702637 0H43.8119V1.02179H0.702637V0ZM42.7901 1.02179H43.8119V3.62622H42.7901V1.02179ZM42.7901 3.62622H43.8119V42.8584H42.7901V3.62622ZM0.702637 1.02179H1.72443V42.8584H0.702637V1.02179ZM0.702637 42.8584H43.8119V43.8802H0.702637V42.8584Z" fill="white"/>
    </mask>
    <g mask="url(#mask1_548_3524)">
      <mask id="mask2_548_3524" style="mask-type:luminance" maskUnits="userSpaceOnUse" x="0" y="-1" width="44" height="46">
        <path d="M43.8868 -0.0253906H0.581055V44.1522H43.8868V-0.0253906Z" fill="white"/>
      </mask>
      <g mask="url(#mask2_548_3524)">
        <mask id="mask3_548_3524" style="mask-type:luminance" maskUnits="userSpaceOnUse" x="0" y="0" width="44" height="44">
          <path d="M0.702393 0H43.8117V1.02179H0.702393V0ZM42.7899 1.02179H43.8117V3.62622H42.7899V1.02179ZM42.7899 3.62622H43.8117V42.8584H42.7899V3.62622ZM0.702393 1.02179H1.72418V42.8584H0.702393V1.02179ZM0.702393 42.8584H43.8117V43.8802H0.702393V42.8584Z" fill="white"/>
        </mask>
        <g mask="url(#mask3_548_3524)">
          <path d="M0.702393 0H43.7606V43.8802H0.702393V0Z" fill="white"/>
        </g>
      </g>
    </g>
  </g>

  <mask id="mask4_548_3524" style="mask-type:luminance" maskUnits="userSpaceOnUse" x="35" y="4" width="16" height="16">
    <path d="M35.8352 4.76172H50.44V19.3665H35.8352V4.76172Z" fill="white"/>
  </mask>
  <g mask="url(#mask4_548_3524)">
    <!-- FIX: fill="" -> fill="none" -->
    <path d="M35.8352 4.76172H50.4377V19.3642H35.8352V4.76172Z" fill="none"/>
  </g>

  <mask id="mask5_548_3524" style="mask-type:luminance" maskUnits="userSpaceOnUse" x="35" y="4" width="16" height="16">
    <path d="M50.4991 4.84375H35.8943V19.4485H50.4991V4.84375Z" fill="white"/>
  </mask>
  <g mask="url(#mask5_548_3524)">
    <path d="M39.2893 16.7979V15.2175L43.3628 11.7252C43.6921 11.4233 43.9396 11.1349 44.1031 10.8624C44.2688 10.5899 44.3528 10.3038 44.3528 10.0041C44.3528 9.59879 44.2211 9.27182 43.9577 9.02318C43.6944 8.77568 43.3458 8.6508 42.9133 8.6508C42.4705 8.6508 42.1151 8.79044 41.8461 9.0686C41.5792 9.34448 41.4373 9.73616 41.4192 10.2448H39.3756C39.4028 9.14353 39.7355 8.28295 40.3747 7.66534C41.0127 7.04545 41.8733 6.73438 42.9541 6.73438C43.6592 6.73438 44.2768 6.86607 44.807 7.12947C45.3394 7.39286 45.7561 7.76298 46.0558 8.23754C46.3578 8.70983 46.51 9.26614 46.51 9.90419C46.51 10.4491 46.3737 10.9986 46.1012 11.5527C45.8288 12.1067 45.3576 12.663 44.6889 13.2193L42.827 14.8406H46.6916V16.7979H39.2893Z" fill="white"/>
  </g>

  <mask id="mask6_548_3524" style="mask-type:luminance" maskUnits="userSpaceOnUse" x="0" y="44" width="46" height="8">
    <path d="M45.9215 44.1523H0V51.9997H45.9215V44.1523Z" fill="white"/>
  </mask>
  <g mask="url(#mask6_548_3524)">
    <path d="M0.665527 49.7314V46.2119H2.04154C2.32537 46.2119 2.57287 46.2653 2.78177 46.3709C2.99067 46.4742 3.15188 46.6206 3.26768 46.8114C3.38235 47.0021 3.44025 47.2269 3.44025 47.4835C3.44025 47.7378 3.38235 47.9626 3.26768 48.1556C3.15188 48.3463 2.99067 48.4939 2.78177 48.5961C2.57287 48.6994 2.32537 48.7505 2.04154 48.7505H1.46479V49.7314H0.665527ZM1.46025 48.0602H1.97796C2.18686 48.0602 2.34694 48.0125 2.45934 47.9149C2.5706 47.815 2.62736 47.6731 2.62736 47.488C2.62736 47.3041 2.5706 47.161 2.45934 47.0611C2.34694 46.9612 2.18686 46.9113 1.97796 46.9113H1.46025V48.0602Z" fill="white"/>
    <!-- (rest of your bottom text paths unchanged) -->
    <path d="M5.31763 49.7314V46.2119H6.82079C7.08986 46.2119 7.3226 46.2607 7.52015 46.3572C7.71656 46.4549 7.86756 46.5934 7.97428 46.775C8.08327 46.9567 8.13777 47.1735 8.13777 47.4244C8.13777 47.6822 8.07873 47.9047 7.96066 48.092C7.84485 48.2771 7.68137 48.4167 7.4702 48.5098L8.1968 49.7314H7.27492L6.64368 48.637H6.11689V49.7314H5.31763ZM6.10781 47.9603H6.71634C6.91275 47.9603 7.06375 47.9149 7.17047 47.8241C7.27606 47.731 7.32942 47.5993 7.32942 47.429C7.32942 47.2598 7.27606 47.1293 7.17047 47.0384C7.06375 46.9453 6.91275 46.8976 6.71634 46.8976H6.10781V47.9603Z" fill="white"/>
    <path d="M11.837 49.7993C11.4703 49.7993 11.1444 49.7221 10.8606 49.5677C10.579 49.4133 10.3577 49.1987 10.1976 48.9228C10.0398 48.6481 9.96143 48.3313 9.96143 47.9737C9.96143 47.6138 10.0398 47.297 10.1976 47.0246C10.3577 46.7498 10.579 46.5341 10.8606 46.3797C11.1444 46.223 11.4703 46.1436 11.837 46.1436C12.2026 46.1436 12.5273 46.223 12.8088 46.3797C13.0904 46.5341 13.3106 46.7498 13.4718 47.0246C13.6353 47.297 13.7171 47.6138 13.7171 47.9737C13.7171 48.3313 13.6353 48.6481 13.4718 48.9228C13.3106 49.1987 13.0904 49.4133 12.8088 49.5677C12.5273 49.7221 12.2026 49.7993 11.837 49.7993ZM10.7743 47.9737C10.7743 48.1826 10.8197 48.3688 10.9106 48.5323C11.0014 48.6935 11.1251 48.8184 11.2829 48.9092C11.443 48.9978 11.6281 49.0409 11.837 49.0409C12.0459 49.0409 12.2287 48.9978 12.3865 48.9092C12.5466 48.8184 12.6703 48.6935 12.7589 48.5323C12.8497 48.3688 12.8951 48.1826 12.8951 47.9737C12.8951 47.7625 12.8497 47.5763 12.7589 47.4151C12.6703 47.255 12.5466 47.129 12.3865 47.0382C12.2287 46.9474 12.0459 46.9019 11.837 46.9019C11.6281 46.9019 11.443 46.9474 11.2829 47.0382C11.1251 47.129 11.0014 47.255 10.9106 47.4151C10.8197 47.5763 10.7743 47.7625 10.7743 47.9737Z" fill="white"/>
    <path d="M15.6626 49.7314V46.2119H17.0386C17.3224 46.2119 17.5699 46.2653 17.7788 46.3709C17.9877 46.4742 18.149 46.6206 18.2648 46.8114C18.3794 47.0021 18.4373 47.2269 18.4373 47.4835C18.4373 47.7378 18.3794 47.9626 18.2648 48.1556C18.149 48.3463 17.9877 48.4939 17.7788 48.5961C17.5699 48.6994 17.3224 48.7505 17.0386 48.7505H16.4619V49.7314H15.6626ZM16.4573 48.0602H16.975C17.1839 48.0602 17.344 48.0125 17.4564 47.9149C17.5677 47.815 17.6244 47.6731 17.6244 47.488C17.6244 47.3041 17.5677 47.161 17.4564 47.0611C17.344 46.9612 17.1839 46.9113 16.975 46.9113H16.4573V48.0602Z" fill="white"/>
    <path d="M20.3147 49.7314V46.2119H22.6262V46.884H21.1094V47.6152H22.49V48.2827H21.1094V49.0548H22.6807V49.7314H20.3147Z" fill="white"/>
    <path d="M24.6699 49.7314V46.2119H26.1731C26.4422 46.2119 26.6749 46.2607 26.8724 46.3572C27.0689 46.4549 27.2199 46.5934 27.3266 46.775C27.4356 46.9567 27.4901 47.1735 27.4901 47.4244C27.4901 47.6822 27.431 47.9047 27.313 48.092C27.1971 48.2771 27.0337 48.4167 26.8225 48.5098L27.5491 49.7314H26.6272L25.996 48.637H25.4692V49.7314H24.6699ZM25.4601 47.9603H26.0686C26.265 47.9603 26.416 47.9149 26.5228 47.8241C26.6284 47.731 26.6817 47.5993 26.6817 47.429C26.6817 47.2598 26.6284 47.1293 26.5228 47.0384C26.416 46.9453 26.265 46.8976 26.0686 46.8976H25.4601V47.9603Z" fill="white"/>
    <path d="M30.3628 49.7314V46.9612H29.2456V46.2119H32.2792V46.9612H31.162V49.7314H30.3628Z" fill="white"/>
    <path d="M34.1599 49.7314V46.2119H34.9592V49.7314H34.1599Z" fill="white"/>
    <path d="M37.1121 49.7314V46.2119H39.4236V46.884H37.9068V47.6152H39.2873V48.2827H37.9068V49.0548H39.4781V49.7314H37.1121Z" fill="white"/>
    <path d="M42.6935 49.7993C42.3995 49.7993 42.1452 49.7505 41.9306 49.654C41.7183 49.5575 41.5548 49.4201 41.4401 49.2407C41.3243 49.0625 41.2676 48.8524 41.2676 48.6095H42.0487C42.0487 48.7764 42.1054 48.9069 42.2212 49C42.3393 49.0943 42.4949 49.1408 42.689 49.1408C42.8548 49.1408 42.9865 49.109 43.0841 49.0454C43.184 48.9796 43.234 48.8888 43.234 48.773C43.234 48.6492 43.1749 48.5493 43.0568 48.4732C42.9388 48.3949 42.7548 48.3279 42.5073 48.2734C42.0952 48.186 41.7898 48.0543 41.59 47.8783C41.3925 47.7001 41.2948 47.4685 41.2948 47.1835C41.2948 46.8599 41.4106 46.6056 41.6445 46.4206C41.8807 46.2367 42.2008 46.1436 42.6073 46.1436C42.8854 46.1436 43.1261 46.1924 43.3293 46.2889C43.5348 46.3831 43.6938 46.5159 43.8062 46.6885C43.9174 46.8611 43.9742 47.0654 43.9742 47.3016H43.2067C43.2067 47.1449 43.1533 47.0223 43.0478 46.9337C42.9444 46.8429 42.8003 46.7975 42.6163 46.7975C42.4494 46.7975 42.3178 46.8316 42.2212 46.8974C42.1236 46.961 42.0759 47.0507 42.0759 47.1653C42.0759 47.2743 42.1282 47.3674 42.2349 47.4424C42.3439 47.515 42.5312 47.5831 42.798 47.6467C43.2362 47.75 43.553 47.8897 43.7471 48.0645C43.9435 48.2371 44.0423 48.463 44.0423 48.7412C44.0423 49.075 43.9208 49.3349 43.679 49.5223C43.4394 49.7073 43.1113 49.7993 42.6935 49.7993Z" fill="white"/>
  </g>
</svg>
